<svg height="504pt" viewBox="0 -1 504.82809 504" width="504pt" xmlns="http://www.w3.org/2000/svg"><path d="m364.5 191.304688-285.878906 290.664062c-7.519532 8.027344-17.976563 12.660156-28.972656 12.832031-10.996094.175781-21.59375-4.121093-29.363282-11.90625-2.882812-2.8125-5.292968-6.074219-7.132812-9.652343-8.644532-16.183594-5.339844-36.152344 8.058594-48.683594l306.863281-270.015625.082031-.085938zm0 0" fill="#7facfa"/><path d="m347.714844 174.519531-285.882813 290.664063c-12.53125 13.398437-32.5 16.703125-48.679687 8.058594-8.644532-16.183594-5.339844-36.152344 8.058594-48.683594l306.863281-270.015625zm0 0" fill="#a4c2f7"/><path d="m490.824219 81.9375c-7.890625 41.128906-29.378907 108.109375-75.542969 120.445312-15.179688 3.359376-31.066406.773438-44.402344-7.21875-2.097656-1.171874-4.195312-2.433593-6.378906-3.859374-6.835938-4.519532-13.242188-9.664063-19.136719-15.359376-1.679687-1.59375-3.273437-3.273437-4.867187-5.035156l-.085938-.085937c-4.636718-5.019531-8.742187-10.503907-12.253906-16.367188-3.898438-6.300781-6.683594-13.230469-8.222656-20.480469-9.066406-47.589843 42.804687-92.410156 87.039062-84.015624 49.605469 9.484374 64.710938 1.675781 71.089844-9.320313 4.953125-8.476563 4.703125-18.96875 11.417969-24.757813 1.195312-1.0625 2.898437-1.339843 4.371093-.710937 1.472657.625 2.449219 2.046875 2.511719 3.648437.515625 21.179688-1.34375 42.351563-5.539062 63.117188zm0 0" fill="#e3e7f2"/><path d="m303.816406 253.082031-208.15625 211.511719-21.070312-21.066406-35.082032-35.085938 221.503907-194.808594 1.761719-1.597656zm0 0" fill="#7facfa"/><path d="m281.070312 233.691406-206.480468 209.835938-35.082032-35.085938 221.503907-194.808594zm0 0" fill="#a4c2f7"/><path d="m478.0625 40.640625c-.921875 8.816406-2.347656 17.542969-4.027344 26.023437-7.890625 41.125-29.375 108.105469-75.539062 120.445313-15.179688 3.355469-31.070313.773437-44.402344-7.21875-2.097656-1.175781-4.199219-2.433594-6.378906-3.863281-2.433594-1.59375-4.785156-3.273438-7.21875-5.117188l-.085938-.085937c-4.636718-5.019531-8.742187-10.503907-12.253906-16.367188-3.898438-6.300781-6.683594-13.230469-8.222656-20.480469-9.066406-47.589843 42.804687-92.410156 87.039062-84.015624 49.605469 9.484374 64.710938 1.675781 71.089844-9.320313zm0 0" fill="#e3e7f2"/><path d="m303.816406 253.082031-166.527344 169.210938-53.128906-53.132813 1.257813-1.089844 177.355469-156.035156 22.828124 22.832032zm0 0" fill="#a4c2f7"/><path d="m285.601562 234.867188-165.351562 168.035156-34.832031-34.832032 177.355469-156.035156zm0 0" fill="#d4e1f4"/><path d="m490.824219 81.9375c-5.625 29.378906-18.214844 71.847656-41.71875 98.289062 2.261719-12.507812 1.859375-25.347656-1.171875-37.6875 12.574218-23.789062 21.378906-49.386718 26.101562-75.875 1.929688-9.652343 3.441406-19.558593 4.449219-29.460937v-.085937c2.242187-7.726563 5.976563-14.941407 10.996094-21.234376 1.210937-1.015624 2.886719-1.265624 4.339843-.644531 1.453126.621094 2.4375 2.003907 2.542969 3.582031.515625 21.179688-1.34375 42.351563-5.539062 63.117188zm0 0" fill="#a4c2f7"/><path d="m478.484375 37.203125c-1.007813 9.902344-2.519531 19.808594-4.449219 29.460937-4.722656 26.488282-13.527344 52.085938-26.101562 75.875-2.984375-13.175781-7.546875-25.945312-13.597656-38.023437-2.320313 2.328125-5.089844 4.15625-8.144532 5.371094-18.464844 7.722656-44.566406-5.371094-44.566406-5.371094 2.398438-2.445313 4.484375-5.179687 6.210938-8.140625 7.191406-13.863281 11.855468-28.898438 13.765624-44.402344 1.425782-.921875 2.097657-1.425781 3.523438-2.347656 53.382812 16.703125 66.390625 2.9375 73.359375-12.421875zm0 0" fill="#e3e7f2"/><path d="m20.285156 482.894531c10.789063 10.785157 26.746094 14.550781 41.222656 9.726563-6.042968-1.925782-11.542968-5.261719-16.042968-9.726563-2.882813-2.8125-5.289063-6.074219-7.132813-9.652343-8.644531-16.183594-5.339843-36.152344 8.058594-48.683594l18.304687-16.105469 35.855469-31.535156 8.796875-7.746094.386719-.335937 243.519531-214.292969.082032-.085938c-3.898438-6.300781-6.679688-13.230469-8.222657-20.480469-7.480469-39.273437 26.539063-76.5625 63.511719-83.722656l-1.652344-.292968c-.378906-.078126-.765625-.070313-1.140625-.136719l-.707031-.199219-.160156.109375c-43.777344-6.714844-93.964844 37.367187-85.03125 84.242187 1.539062 7.25 4.324218 14.179688 8.222656 20.480469l-.082031.085938-243.527344 214.28125-.386719.335937-8.796875 7.75-35.855469 31.53125-18.296874 16.117188c-13.398438 12.53125-16.703126 32.5-8.058594 48.683594 1.839844 3.578124 4.25 6.839843 7.132812 9.652343zm0 0" fill="#fff"/><path d="m242.613281 240.917969-81.921875 72.082031-133.933594 117.863281-11.097656-12.609375 133.945313-117.859375 81.917969-72.082031zm0 0" fill="#fff"/><g fill="#428dff"><path d="m495.546875.4375c-4.460937.179688-8.027344 3.777344-8.164063 8.242188-1.320312 4.417968-3.203124 8.652343-5.601562 12.589843-.652344 1.210938-1.25 2.300781-1.726562 3.242188-13.917969 27.527343-30.621094 24.492187-58.242188 19.472656-4.382812-.796875-8.90625-1.613281-13.554688-2.328125-1.496093-.234375-3.023437-.242188-4.527343-.375-.21875-.089844-.449219-.171875-.679688-.234375-.378906-.003906-.761719.023437-1.140625.082031-25.753906-.878906-50.640625 9.390625-68.28125 28.175782-17.753906 17.160156-25.945312 41.949218-21.914062 66.308593 1.226562 5.871094 3.203125 11.554688 5.875 16.921875l-86.074219 75.777344-25.179687 22.175781c-3.285157 3.105469-3.523438 8.253907-.535157 11.644531 2.988281 3.394532 8.125 3.8125 11.621094.945313l25.179687-22.175781 19.777344-17.398438 29.578125 29.578125-154.699219 157.308594-40.835937-40.835937 70.574219-62.109376c3.285156-3.105468 3.519531-8.253906.53125-11.648437-2.988282-3.390625-8.125-3.808594-11.621094-.941406l-140.246094 123.398437.042969.042969c-.074219.066406-.167969.085937-.234375.144531-14.648438 13.753906-19.421875 35.050782-12.042969 53.742188 7.378907 18.6875 25.414063 30.984375 45.507813 31.023437h.722656c13.253906-.132812 25.878906-5.675781 34.949219-15.34375l224.945312-228.6875c.066407-.070312.148438-.085937.214844-.152343.070313-.066407.09375-.167969.160156-.234376l55.910157-56.910156c.320312.1875.644531.414063.964843.589844 10.902344 6.277344 23.226563 9.683594 35.804688 9.886719 5.007812.011719 9.996093-.625 14.839843-1.898438 54.476563-14.519531 75.222657-93.609375 81.609376-126.925781 5.171874-24.839844 6.878906-50.277344 5.078124-75.589844-.121093-2.140625-1.101562-4.144531-2.714843-5.554687-1.617188-1.414063-3.730469-2.113281-5.871094-1.949219zm-370.066406 421.921875-29.820313 30.34375-43.882812-43.855469 32.023437-28.1875zm-76.0625 64.058594c-8.691407.105469-17.058594-3.300781-23.207031-9.449219-6.148438-6.148438-9.554688-14.515625-9.449219-23.210938.097656-8.746093 3.765625-17.070312 10.15625-23.046874l12.21875-10.761719 44.722656 44.722656-11.347656 11.546875c-5.980469 6.414062-14.324219 10.101562-23.09375 10.199219zm254.324219-245.28125-28.722657-28.722657 51.519531-45.324218c3.910157 5.3125 8.25 10.292968 12.984376 14.890625 3.839843 3.710937 7.894531 7.195312 12.136718 10.441406zm109.398437-46.851563c-13.074219 2.78125-26.71875.476563-38.15625-6.4375-1.921875-1.074218-3.84375-2.234375-5.875-3.535156-6.398437-4.230469-12.394531-9.042969-17.910156-14.378906-6.117188-5.847656-11.441407-12.476563-15.832031-19.714844l-.042969-.050781v-.058594c-3.378907-5.441406-5.800781-11.429687-7.148438-17.691406-2.929687-18.972657 3.621094-38.175781 17.53125-51.402344 12.273438-12.855469 28.667969-21 46.324219-23.015625-1.707031 14.742188-7.347656 28.75-16.324219 40.566406-1.90625 1.902344-2.78125 4.605469-2.351562 7.265625.425781 2.660157 2.101562 4.949219 4.507812 6.164063 1.433594.710937 31.054688 15.300781 53.011719 5.035156 5.449219 12.882812 14.035156 37.914062 10.316406 59.300781-7.480468 8.5-17.203125 14.71875-28.058594 17.945313zm69.457031-113.925781c-4.664062 25.074219-12.910156 49.34375-24.492187 72.066406-2.628907-18.039062-8.144531-35.542969-16.335938-51.828125-1.242187-2.359375-3.539062-3.988281-6.175781-4.382812-2.640625-.398438-5.308594.484375-7.195312 2.375-8.207032 8.25-23.425782 5.339844-33.378907 2.148437 7.046875-13.074219 11.765625-27.273437 13.941407-41.964843 3.359374.554687 6.714843 1.117187 9.863281 1.675781 24.472656 4.441406 49.65625 9.015625 68.675781-16.121094-.921875 12.097656-2.558594 24.128906-4.902344 36.03125zm0 0"/><path d="m180.355469 284.515625c2.246093 2.570313 5.820312 3.527344 9.046875 2.421875 3.226562-1.105469 5.464844-4.054688 5.660156-7.460938l-.074219-1.609374c-.066406-.5625-.210937-1.113282-.429687-1.636719-.132813-.519531-.34375-1.011719-.621094-1.46875-.292969-.480469-.621094-.9375-.980469-1.367188-1.492187-1.648437-3.554687-2.671875-5.765625-2.863281-4.601562-.167969-8.527344 3.289062-8.949218 7.871094-.035157 1.101562.132812 2.203125.503906 3.242187.34375 1.054688.890625 2.027344 1.609375 2.871094zm0 0"/></g></svg>