<svg xmlns="http://www.w3.org/2000/svg" width="512" height="512" viewBox="0 0 512 512"><path fill="#7134A3" d="M512 472c0 22.1-17.9 40-40 40H40c-22.1 0-40-17.9-40-40V40C0 17.9 17.9 0 40 0h432c22.1 0 40 17.9 40 40v432z"/><path fill="#FFF" d="M88.7 291.6h-.3c-2.2 2.2-4.4 3.9-6.6 5.1-2.2 1.2-5.4 1.8-9.4 1.8-2 0-4-.2-6.1-.7-2.1-.4-4-1.2-5.8-2.4-1.8-1.1-3.3-2.8-4.4-4.9-1.1-2.1-1.7-4.8-1.7-8.1 0-3.4.4-6.4 1.1-8.9.8-2.6 2.2-4.7 4.2-6.4 2-1.7 4.7-3 8.1-3.8 3.4-.8 7.7-1.2 12.9-1.2 1.2 0 2.4 0 3.6.1 1.2.1 2.7.2 4.4.2v-6.3c0-2.1-.6-3.7-1.8-5.1-1.2-1.3-3.4-2-6.5-2-2.2 0-4.2.5-6 1.5-1.8 1-3 2.5-3.5 4.5H54.6c.5-5.4 3.1-9.8 7.5-13 2.2-1.6 4.8-2.8 7.9-3.7 3.1-.9 6.5-1.4 10.3-1.4 3.5 0 6.8.4 9.8 1.2 3.1.8 5.7 2 7.9 3.6s4 3.6 5.3 5.9c1.3 2.4 2 5.1 2 8.3v41.8H88.7v-6.1zm0-19.6c-1.9-.2-3.4-.4-4.6-.4-3.6 0-6.7.6-9.2 1.8-2.6 1.2-3.8 3.5-3.8 6.7 0 2.3.8 4.1 2.3 5.6 1.5 1.4 3.7 2.1 6.4 2.1 2.8 0 5-.7 6.6-2 1.6-1.3 2.4-3.2 2.4-5.7V272zM121.7 237.8h16.7v6.4c3.4-2.2 6.7-3.9 10-5.2 3.3-1.3 7.3-1.9 12.1-1.9v12.8c-1.6-.5-3.3-.7-5.1-.7-1.7 0-3.6.2-5.6.7-2 .4-3.9 1.2-5.6 2.2-1.7 1-3.1 2.4-4.2 4-1.1 1.7-1.6 3.7-1.6 6.2v35.6h-16.7v-60.1zM171.3 237.8H188v6.4c3.4-2.2 6.7-3.9 10-5.2 3.3-1.3 7.3-1.9 12.1-1.9v12.8c-1.6-.5-3.3-.7-5.1-.7-1.7 0-3.6.2-5.6.7-2 .4-3.9 1.2-5.6 2.2-1.7 1-3.1 2.4-4.2 4-1.1 1.7-1.6 3.7-1.6 6.2v35.6h-16.7v-60.1zM218.4 257.9c0-2.4.2-4.7.7-6.8.4-2.1 1.3-3.9 2.5-5.4 2-2.6 4.8-4.7 8.5-6.3 3.7-1.6 8.1-2.4 13.3-2.4 5.1 0 9.5.8 13.3 2.4 3.7 1.6 6.5 3.7 8.5 6.3 1.2 1.6 2 3.4 2.5 5.4.4 2.1.7 4.3.7 6.8v19.8c0 2.4-.2 4.7-.7 6.8-.4 2.1-1.3 3.9-2.5 5.4-2 2.6-4.8 4.7-8.5 6.3-3.7 1.6-8.1 2.4-13.3 2.4-5.1 0-9.5-.8-13.3-2.4-3.7-1.6-6.5-3.7-8.5-6.3-1.2-1.6-2-3.4-2.5-5.4-.4-2.1-.7-4.3-.7-6.8v-19.8zm16.7 21.7c0 2.3.7 4 2.2 5.2 1.5 1.1 3.5 1.7 6 1.7s4.5-.6 6-1.7 2.2-2.9 2.2-5.2V256c0-2.3-.7-4-2.2-5.2-1.5-1.1-3.5-1.7-6-1.7s-4.5.6-6 1.7-2.2 2.9-2.2 5.2v23.6zM344.6 297.8h-14.7l-9.2-35.6h-.3l-9.2 35.6h-14.7l-19.6-60h17.7l10.1 37.3h.3l9.3-37.3h13.1l8.8 37.3h.3l10-37.3h17.7l-19.6 60z"/><path fill="#C9DB2E" d="M387.2 267.1l-19.5-29.4h17.7l10.3 17.1 10.3-17.1h17.7l-19.8 29.4 20.8 30.7H407l-11.3-18.4-11.3 18.4h-17.7l20.5-30.7zM432.8 213.5h16.7v67.4c0 2.3.6 3.8 1.7 4.7 1.1.8 3.3 1.4 6.5 1.6v11.4c-3.8 0-7.3-.2-10.4-.7-3.1-.4-5.7-1.3-7.9-2.5-2.1-1.2-3.8-2.9-4.9-5.2-1.1-2.2-1.7-5.1-1.7-8.5v-68.2z"/></svg>