<svg id="Layer_1" enable-background="new 0 0 512 512" height="512" viewBox="0 0 512 512" width="512" xmlns="http://www.w3.org/2000/svg"><g><g><path d="m504.5 287.77v99.98c0 11.35-9.21 20.56-20.56 20.56h-143.63v-285.72h72.27c11.36 0 20.56 9.21 20.56 20.57v123.79h50.55c11.49 0 20.81 9.32 20.81 20.82z" fill="#eef0f5"/><path d="m384.58 122.59h28c11.36 0 20.56 9.21 20.56 20.57v123.79h-28v-123.79c0-11.36-9.2-20.57-20.56-20.57z" fill="#dae1ea"/><path d="m504.5 287.77v99.98c0 11.35-9.21 20.56-20.56 20.56h-143.63v-28.41h18.58c6.61 0 12.76-3.23 16.65-8.57 11.29-15.52 29.59-25.6 50.24-25.6 8.12 0 15.88 1.56 22.99 4.4 13.3 5.3 27.73-4.72 27.73-19.04v-43.32c0-11.5-9.32-20.82-20.81-20.82h28c11.49 0 20.81 9.32 20.81 20.82z" fill="#dae1ea"/><path d="m504.5 305.93v30h-27.46c-.18 0-.36 0-.54-.01-3.93-.14-7.47-1.79-10.06-4.38-2.72-2.72-4.4-6.46-4.4-10.61 0-8.1 6.43-14.7 14.46-14.99.18-.01.36-.01.54-.01z" fill="#fbdf63"/><path d="m375.43 152.4h57.71v114.55h-57.71z" fill="#00c2f3"/><path d="m405.14 152.4h28v114.55h-28z" fill="#1e90ff"/><path d="m504.5 305.93v30h-27.46c-.18 0-.36 0-.54-.01v-29.98c.18-.01.36-.01.54-.01z" fill="#f9d11f"/><path d="m340.31 87.21v321.1h-313.1c-10.89 0-19.71-8.82-19.71-19.71v-301.39c0-10.88 8.82-19.71 19.71-19.71h293.39c10.88 0 19.71 8.83 19.71 19.71z" fill="#a4ce39"/><path d="m340.31 87.21v321.1h-313.1c-10.89 0-19.71-8.82-19.71-19.71v-28c0 5.91 1.46 11.2 6.75 14.81 7.66 5.24 18.13 3.08 23.64-4.4 11.3-15.33 29.49-25.28 50.01-25.28 21.23 0 39.98 10.66 51.17 26.92 3.29 4.77 8.68 7.66 14.47 7.66h138.44c11.23 0 20.33-9.1 20.33-20.33v-272.77c0-10.88-8.83-19.71-19.71-19.71h28c10.88 0 19.71 8.83 19.71 19.71z" fill="#68c044"/><path d="m340.31 330.92v77.39h-313.1c-10.89 0-19.71-8.82-19.71-19.71v-57.68z" fill="#b9cfdf"/><path d="m340.31 330.92v77.39h-313.1c-10.89 0-19.71-8.82-19.71-19.71v-28c0 5.91 1.46 11.2 6.75 14.81 7.66 5.24 18.13 3.08 23.64-4.4 11.3-15.33 29.49-25.28 50.01-25.28 21.23 0 39.98 10.66 51.17 26.92 3.29 4.77 8.68 7.66 14.47 7.66h138.44c11.23 0 20.33-9.1 20.33-20.33v-29.06z" fill="#90abbd"/><g><path d="m124.58 408.31c0 20.26-16.43 36.68-36.68 36.68-4.39 0-8.6-.77-12.5-2.19-14.11-5.11-24.18-18.62-24.18-34.49s10.07-29.38 24.18-34.49c3.9-1.42 8.11-2.19 12.5-2.19 20.25 0 36.68 16.42 36.68 36.68z" fill="#56788b"/><path d="m124.58 408.31c0 20.26-16.43 36.68-36.68 36.68-4.39 0-8.6-.77-12.5-2.19 14.1-5.11 24.18-18.62 24.18-34.49s-10.08-29.38-24.18-34.49c3.9-1.42 8.11-2.19 12.5-2.19 20.25 0 36.68 16.42 36.68 36.68z" fill="#415e6f"/></g><g><path d="m462.458 408.31c0 20.26-16.43 36.68-36.68 36.68-4.39 0-8.6-.77-12.5-2.19-14.11-5.11-24.18-18.62-24.18-34.49s10.07-29.38 24.18-34.49c3.9-1.42 8.11-2.19 12.5-2.19 20.25 0 36.68 16.42 36.68 36.68z" fill="#56788b"/><path d="m462.458 408.31c0 20.26-16.43 36.68-36.68 36.68-4.39 0-8.6-.77-12.5-2.19 14.1-5.11 24.18-18.62 24.18-34.49s-10.08-29.38-24.18-34.49c3.9-1.42 8.11-2.19 12.5-2.19 20.25 0 36.68 16.42 36.68 36.68z" fill="#415e6f"/></g></g></g><g><path d="m483.687 259.454h-43.042v-116.299c0-15.475-12.59-28.064-28.064-28.064h-64.771v-27.882c0-15.003-12.206-27.208-27.208-27.208h-293.394c-15.002 0-27.208 12.205-27.208 27.208v11.997c0 4.143 3.358 7.5 7.5 7.5s7.5-3.357 7.5-7.5v-11.997c0-6.731 5.477-12.208 12.208-12.208h293.393c6.731 0 12.208 5.477 12.208 12.208v236.213h-317.809v-189.051c0-4.143-3.358-7.5-7.5-7.5s-7.5 3.357-7.5 7.5v254.23c0 15.003 12.206 27.208 27.208 27.208h17.236c3.771 20.56 21.821 36.189 43.454 36.189s39.683-15.629 43.454-36.189h119.307c4.142 0 7.5-3.357 7.5-7.5s-3.358-7.5-7.5-7.5h-119.14c-3.369-21.04-21.647-37.167-43.622-37.167s-40.252 16.128-43.621 37.168h-17.068c-6.731 0-12.208-5.477-12.208-12.208v-50.18h317.809v62.388h-47.749c-4.142 0-7.5 3.357-7.5 7.5s3.358 7.5 7.5 7.5h97.266c3.771 20.56 21.821 36.189 43.453 36.189s39.683-15.629 43.454-36.189h14.702c15.475 0 28.064-12.59 28.064-28.064v-99.978c.001-15.613-12.7-28.314-28.312-28.314zm-395.79 119.189c16.089 0 29.178 13.089 29.178 29.178s-13.089 29.179-29.178 29.179-29.178-13.09-29.178-29.179 13.09-29.178 29.178-29.178zm337.883 58.356c-16.089 0-29.178-13.09-29.178-29.179s13.089-29.178 29.178-29.178 29.178 13.089 29.178 29.178-13.089 29.179-29.178 29.179zm71.22-108.567h-19.959c-4.135 0-7.5-3.364-7.5-7.5s3.364-7.5 7.5-7.5h19.959zm0-30h-19.959c-12.406 0-22.5 10.094-22.5 22.5s10.093 22.5 22.5 22.5h19.959v44.313c0 7.204-5.861 13.064-13.064 13.064h-14.534c-3.369-21.04-21.647-37.167-43.622-37.167s-40.252 16.127-43.621 37.167h-34.35v-270.718h64.771c7.204 0 13.064 5.86 13.064 13.064v1.747h-50.213c-4.142 0-7.5 3.357-7.5 7.5v114.552c0 4.143 3.358 7.5 7.5 7.5h108.255c7.341 0 13.313 5.973 13.313 13.313v10.665zm-71.355-138.53v99.552h-42.713v-99.552z"/><path d="m392.772 298.432h-17.34c-4.142 0-7.5 3.357-7.5 7.5s3.358 7.5 7.5 7.5h17.34c4.142 0 7.5-3.357 7.5-7.5s-3.358-7.5-7.5-7.5z"/><path d="m217.895 182.443c4.142 0 7.5-3.357 7.5-7.5s-3.358-7.5-7.5-7.5h-29.982c-4.142 0-7.5 3.357-7.5 7.5v59.983c0 4.143 3.358 7.5 7.5 7.5h29.982c4.142 0 7.5-3.357 7.5-7.5s-3.358-7.5-7.5-7.5h-22.482v-14.991h22.482c4.142 0 7.5-3.357 7.5-7.5s-3.358-7.5-7.5-7.5h-22.482v-14.992z"/><path d="m276.877 182.443c4.142 0 7.5-3.357 7.5-7.5s-3.358-7.5-7.5-7.5h-29.982c-4.142 0-7.5 3.357-7.5 7.5v59.983c0 4.143 3.358 7.5 7.5 7.5h29.982c4.142 0 7.5-3.357 7.5-7.5s-3.358-7.5-7.5-7.5h-22.482v-14.991h22.482c4.142 0 7.5-3.357 7.5-7.5s-3.358-7.5-7.5-7.5h-22.482v-14.992z"/><path d="m100.913 182.443c4.142 0 7.5-3.357 7.5-7.5s-3.358-7.5-7.5-7.5h-29.982c-4.142 0-7.5 3.357-7.5 7.5v59.983c0 4.143 3.358 7.5 7.5 7.5s7.5-3.357 7.5-7.5v-22.491h22.482c4.142 0 7.5-3.357 7.5-7.5s-3.358-7.5-7.5-7.5h-22.482v-14.992z"/><path d="m166.413 204.936v-29.992c0-4.143-3.358-7.5-7.5-7.5h-29.982c-4.142 0-7.5 3.357-7.5 7.5v59.983c0 4.143 3.358 7.5 7.5 7.5s7.5-3.357 7.5-7.5v-20.195l16.242 24.356c1.445 2.168 3.823 3.34 6.247 3.34 1.43 0 2.875-.408 4.154-1.261 3.446-2.299 4.377-6.955 2.079-10.401l-12.224-18.33h5.984c4.142 0 7.5-3.358 7.5-7.5zm-15-7.5h-14.982v-14.992h14.982z"/></g></svg>